/* XPM */
static char *result[] = {
/* columns rows colors chars-per-pixel */
"20 22 4 1 ",
"  c #120E14",
". c #8F3622",
"X c #AB572C",
"o c None",
/* pixels */
"oooooooooooooooooooo",
"oooooooooooooooooooo",
"oooooo  oooooo ooooo",
"ooooo .X      X oooo",
"ooooo .X .X.XX. oooo",
"oooo .X XXXXXXX oooo",
"oooo .X XXXXXXX  ooo",
"oooo .X XXXXXXX oooo",
"ooooo .X XXXXX.  ooo",
"oooo  .. ...... oooo",
"ooo .X  XX.... ooooo",
"ooo XXXXXXX... ooooo",
"ooo XXX XXX... ooooo",
"ooo XXXXXXX. . ooooo",
"ooo XXX XXX  . ooooo",
"ooo .X o X. o  ooooo",
"oooo X o X. oooooooo",
"oooo X o X ooooooooo",
"oooo X o X ooooooooo",
"ooooo  o  oooooooooo",
"oooooooooooooooooooo",
"oooooooooooooooooooo"
};
