/* XPM */
static char *result[] = {
/* columns rows colors chars-per-pixel */
"20 20 7 1 ",
"  c #120E14",
". c #9A877E",
"X c #CA719F",
"o c #BDB5C8",
"O c #E197C6",
"+ c #E1DEE7",
"@ c None",
/* pixels */
"@@@@@@@@@  @@@@@@@@@",
"@@@@@@@@ +o @@@@@@@@",
"@@@@@@@@ +o @@@@@@@@",
"@@@@@@@ +o @@@@@@@@@",
"@@@@@@@ +o @@@@@@@@@",
"@@@@@   +o @  @@@@@@",
"@@@@ +o     o+ @@@@@",
"@@@@ .++o+o++. @@@@@",
"@@@@ o+++++++o @@@@@",
"@@@  +++++++++  @@@@",
"@@@@ +  +++  + @@@@@",
"@@@  ++++O++++  @@@@",
"@@@@ o++XXX++o @@@@@",
"@@@@ o++XOX++o @@@@@",
"@@@@@ o+++++o @@@@@@",
"@@@@ o+++++++o @@@@@",
"@@@@ o+++++++o @@@@@",
"@@@@ +++o+o+++ @@@@@",
"@@@@@ +++ +++ @@@@@@",
"@@@@@@   @   @@@@@@@"
};
