/* XPM */
static char *result[] = {
/* columns rows colors chars-per-pixel */
"20 22 4 1 ",
"  c #120E14",
". c #8F3622",
"X c #AB572C",
"o c None",
/* pixels */
"ooooooo oooooo ooooo",
"oooooo X oooo X oooo",
"oooooo .     X. oooo",
"oooooo .X.X.XX. oooo",
"oooooo  XXXXXXX oooo",
"ooooo .X XXXXXX  ooo",
"ooooo .X XXXXXX oooo",
"oooo .X XXXXXX.  ooo",
"oooo .X XXXXX.. oooo",
"oooo .X ...... ooooo",
"ooooo .X ...... oooo",
"oooo  .. ...... oooo",
"ooo .X  XX.... ooooo",
"ooo XXXXXXX... ooooo",
"ooo XXX XXX... ooooo",
"ooo XXXXXXX. . ooooo",
"ooo XXX XXX  . ooooo",
"ooo .X o X. o  ooooo",
"oooo X o X. oooooooo",
"oooo X o X ooooooooo",
"oooo X o X ooooooooo",
"ooooo  o  oooooooooo"
};
