/* XPM */
static char *result[] = {
/* columns rows colors chars-per-pixel */
"20 22 6 1 ",
"  c #120E14",
". c #8F3622",
"X c #AB572C",
"o c #CA719F",
"O c #C2B1A9",
"+ c None",
/* pixels */
"++++++++++++++++++++",
"++++++++++++++++++++",
"+++ +++++++ ++++++++",
"++ X +++++ X +++++++",
"++ O.     .O +++++++",
"++ OXX.X.XXO +++++++",
"++ .XXXXXXX. +++++++",
"+  XXXXXXXXX  ++++++",
"++ X  XXX  X +++++++",
"+  .XXXoXXX.  ++++++",
"+++ .XXoXX. ++++++++",
"++ .XXX  XX. ++++  +",
"++ .XX XX X. +++ X. ",
"+ .XXXX .X X. + X. +",
"+ XXXX X .XXX + XX +",
"+ . XX X. ...  XX. +",
"+ . XX ...... .X. ++",
"++ . X .. .. ... +++",
"+++  X          ++++",
"+++++  +++++++++++++",
"++++++++++++++++++++",
"++++++++++++++++++++"
};
