/* XPM */
static char *result[] = {
/* columns rows colors chars-per-pixel */
"20 22 6 1 ",
"  c #120E14",
". c #8F3622",
"X c #AB572C",
"o c #CA719F",
"O c #C2B1A9",
"+ c None",
/* pixels */
"++++++++++++++++++++",
"++++++++++++++++++++",
"+++ +++++++ ++++++++",
"++ X +++++ X +++++++",
"++ O.     .O +++++++",
"++ OXX.X.XXO +++++++",
"++ .XXXXXXX. +++++++",
"+  XX XXX XX  ++++++",
"++ XX XXX XX +++++++",
"+  .XXXoXXX.  ++++++",
"+++ .XXXXX. ++++++++",
"++ .XXXXXXX. ++  +++",
"++ .XXXXXXX. + X. ++",
"+ .XXXXXXXXX. + X. +",
"+ XXXX X XXXX + XX +",
"+ . XX X XX .  XX. +",
"+ . XX . XX . .X. ++",
"++ . X . X . ... +++",
"+++  X   X      ++++",
"+++++  +  ++++++++++",
"++++++++++++++++++++",
"++++++++++++++++++++"
};
