/* XPM */
static char *_006164caebe4f66e757724254392c12wXQzqD6nvMCDk6Qs[] = {
/* columns rows colors chars-per-pixel */
"64 64 2 1 ",
"  c #D8B9B7",
". c #E3C5C6",
/* pixels */
"                                                                ",
"                                                                ",
"                                                                ",
"                                                                ",
"......................    ............................    ......",
"......................    ............................    ......",
"......................    ............................    ......",
"......................    ............................    ......",
"......................    ............................    ......",
"......................    ............................    ......",
"......................    ............................    ......",
"......................    ............................    ......",
"......................    ............................    ......",
"......................    ............................    ......",
"......................    ............................    ......",
"......................    ............................    ......",
"                                                                ",
"                                                                ",
"                                                                ",
"                                                                ",
"........    ............................    ....................",
"........    ............................    ....................",
"........    ............................    ....................",
"........    ............................    ....................",
"........    ............................    ....................",
"........    ............................    ....................",
"........    ............................    ....................",
"........    ............................    ....................",
"........    ............................    ....................",
"........    ............................    ....................",
"........    ............................    ....................",
"........    ............................    ....................",
"                                                                ",
"                                                                ",
"                                                                ",
"                                                                ",
"......................    ............................    ......",
"......................    ............................    ......",
"......................    ............................    ......",
"......................    ............................    ......",
"......................    ............................    ......",
"......................    ............................    ......",
"......................    ............................    ......",
"......................    ............................    ......",
"......................    ............................    ......",
"......................    ............................    ......",
"......................    ............................    ......",
"......................    ............................    ......",
"                                                                ",
"                                                                ",
"                                                                ",
"                                                                ",
"........    ............................    ....................",
"........    ............................    ....................",
"........    ............................    ....................",
"........    ............................    ....................",
"........    ............................    ....................",
"........    ............................    ....................",
"........    ............................    ....................",
"........    ............................    ....................",
"........    ............................    ....................",
"........    ............................    ....................",
"........    ............................    ....................",
"........    ............................    ...................."
};
