/* XPM */
static char *_f6c73947d114a91cdd465f458fc44d3BVhiOIzDjvWbrUW4[] = {
/* columns rows colors chars-per-pixel */
"64 64 2 1 ",
"  c #9A8DEF",
". c #B39EF9",
/* pixels */
"                                                                ",
"                                                                ",
"..............      ..........................      ............",
"..............      ..........................      ............",
"................  ..............................  ..............",
"................  ..............................  ..............",
"................  ..............................  ..............",
"................  ..............................  ..............",
"................  ..............................  ..............",
"................  ..............................  ..............",
"................  ..............................  ..............",
"................  ..............................  ..............",
"................  ..............................  ..............",
"................  ..............................  ..............",
"..............      ..........................      ............",
"..............      ..........................      ............",
"                                                                ",
"                                                                ",
"    ..........................      ..........................  ",
"    ..........................      ..........................  ",
"  ..............................  ..............................",
"  ..............................  ..............................",
"  ..............................  ..............................",
"  ..............................  ..............................",
"  ..............................  ..............................",
"  ..............................  ..............................",
"  ..............................  ..............................",
"  ..............................  ..............................",
"  ..............................  ..............................",
"  ..............................  ..............................",
"    ..........................      ..........................  ",
"    ..........................      ..........................  ",
"                                                                ",
"                                                                ",
"..............      ..........................      ............",
"..............      ..........................      ............",
"................  ..............................  ..............",
"................  ..............................  ..............",
"................  ..............................  ..............",
"................  ..............................  ..............",
"................  ..............................  ..............",
"................  ..............................  ..............",
"................  ..............................  ..............",
"................  ..............................  ..............",
"................  ..............................  ..............",
"................  ..............................  ..............",
"..............      ..........................      ............",
"..............      ..........................      ............",
"                                                                ",
"                                                                ",
"    ..........................      ..........................  ",
"    ..........................      ..........................  ",
"  ..............................  ..............................",
"  ..............................  ..............................",
"  ..............................  ..............................",
"  ..............................  ..............................",
"  ..............................  ..............................",
"  ..............................  ..............................",
"  ..............................  ..............................",
"  ..............................  ..............................",
"  ..............................  ..............................",
"  ..............................  ..............................",
"    ..........................      ..........................  ",
"    ..........................      ..........................  "
};
