/* XPM */
static char *eb2572fb74ca4238dbc3d2e2ddf2042dF1sfKhPx42eCLiTn[] = {
/* columns rows colors chars-per-pixel */
"64 64 2 1 ",
"  c #EF958D",
". c #F6A498",
/* pixels */
"                                                                ",
"                                                                ",
"                                                                ",
"                                                                ",
"............................      ..............................",
"............................      ..............................",
"............................      ..............................",
"............................      ..............................",
"............................      ..............................",
"............................      ..............................",
"............................      ..............................",
"............................      ..............................",
"............................      ..............................",
"............................      ..............................",
"............................      ..............................",
"............................      ..............................",
"............................      ..............................",
"............................      ..............................",
"............................      ..............................",
"............................      ..............................",
"............................      ..............................",
"............................      ..............................",
"............................      ..............................",
"............................      ..............................",
"............................      ..............................",
"............................      ..............................",
"............................      ..............................",
"............................      ..............................",
"............................      ..............................",
"............................      ..............................",
"                                                                ",
"                                                                ",
"                                                                ",
"                                                                ",
"                                                                ",
"                                                                ",
"    ..........................................................  ",
"    ..........................................................  ",
"    ..........................................................  ",
"    ..........................................................  ",
"    ..........................................................  ",
"    ..........................................................  ",
"    ..........................................................  ",
"    ..........................................................  ",
"    ..........................................................  ",
"    ..........................................................  ",
"    ..........................................................  ",
"    ..........................................................  ",
"    ..........................................................  ",
"    ..........................................................  ",
"    ..........................................................  ",
"    ..........................................................  ",
"    ..........................................................  ",
"    ..........................................................  ",
"    ..........................................................  ",
"    ..........................................................  ",
"    ..........................................................  ",
"    ..........................................................  ",
"    ..........................................................  ",
"    ..........................................................  ",
"    ..........................................................  ",
"    ..........................................................  ",
"                                                                ",
"                                                                "
};
